<svg width="18" height="18" viewBox="0 0 21 21" fill="currentColor" xmlns="http://www.w3.org/2000/svg">
    <path d="M12.4111 6.24821C12.0576 5.82394 11.427 5.76661 11.0027 6.12018C10.5785 6.47374 10.5211 7.10431 10.8747 7.52858L12.4111 6.24821ZM14.9575 10.8659L15.7257 11.5061C16.0348 11.1352 16.0348 10.5966 15.7257 10.2257L14.9575 10.8659ZM10.8747 14.2032C10.5211 14.6275 10.5785 15.2581 11.0027 15.6116C11.427 15.9652 12.0576 15.9079 12.4111 15.4836L10.8747 14.2032ZM7.00251 9.8659C6.45022 9.8659 6.00251 10.3136 6.00251 10.8659C6.00251 11.4182 6.45022 11.8659 7.00251 11.8659L7.00251 9.8659ZM10.8747 7.52858L14.1893 11.5061L15.7257 10.2257L12.4111 6.24821L10.8747 7.52858ZM14.1893 10.2257L10.8747 14.2032L12.4111 15.4836L15.7257 11.5061L14.1893 10.2257ZM14.9575 9.8659L7.00251 9.8659L7.00251 11.8659L14.9575 11.8659V9.8659ZM16.6368 5.20902C19.761 8.33322 19.761 13.3985 16.6368 16.5227L18.051 17.9369C21.9563 14.0317 21.9563 7.70005 18.051 3.79481L16.6368 5.20902ZM16.6368 16.5227C13.5126 19.6469 8.44732 19.6469 5.32313 16.5227L3.90891 17.9369C7.81416 21.8422 14.1458 21.8422 18.051 17.9369L16.6368 16.5227ZM5.32313 16.5227C2.19893 13.3985 2.19893 8.33322 5.32313 5.20902L3.90891 3.79481C0.00366974 7.70005 0.00366974 14.0317 3.90891 17.9369L5.32313 16.5227ZM5.32313 5.20902C8.44732 2.08483 13.5126 2.08483 16.6368 5.20902L18.051 3.79481C14.1458 -0.110435 7.81416 -0.110435 3.90891 3.79481L5.32313 5.20902Z" fill="currentColor"/>
</svg>
