<svg width="22" height="22" viewBox="0 0 22 22" fill="currentColor" xmlns="http://www.w3.org/2000/svg">
    <path d="M1.37988 0.671646C0.827598 0.671646 0.379883 1.11936 0.379883 1.67165C0.379883 2.22393 0.827598 2.67165 1.37988 2.67165V0.671646ZM3.67242 1.67165L4.63765 1.41023C4.51959 0.974328 4.12403 0.671646 3.67242 0.671646V1.67165ZM7.39779 15.4269L6.43257 15.6883C6.56283 16.1693 7.02735 16.481 7.52183 16.4192L7.39779 15.4269ZM18.8605 13.994L18.9845 14.9863C19.4092 14.9332 19.753 14.6158 19.8397 14.1966L18.8605 13.994ZM20.5799 5.68359L21.5591 5.88619C21.6201 5.59168 21.5452 5.28538 21.3553 5.05216C21.1654 4.81895 20.8806 4.68359 20.5799 4.68359V5.68359ZM4.75899 5.68359L3.79376 5.945L4.75899 5.68359ZM1.37988 2.67165H3.67242V0.671646H1.37988V2.67165ZM7.52183 16.4192L18.9845 14.9863L18.7364 13.0018L7.27376 14.4346L7.52183 16.4192ZM19.8397 14.1966L21.5591 5.88619L19.6006 5.48098L17.8812 13.7914L19.8397 14.1966ZM2.70719 1.93306L3.79376 5.945L5.72421 5.42217L4.63765 1.41023L2.70719 1.93306ZM3.79376 5.945L6.43257 15.6883L8.36302 15.1655L5.72421 5.42217L3.79376 5.945ZM20.5799 4.68359H4.75899V6.68359H20.5799V4.68359ZM9.97988 19.1789C9.97988 19.4551 9.75603 19.6789 9.47988 19.6789V21.6789C10.8606 21.6789 11.9799 20.5596 11.9799 19.1789H9.97988ZM9.47988 19.6789C9.20374 19.6789 8.97988 19.4551 8.97988 19.1789H6.97988C6.97988 20.5596 8.09917 21.6789 9.47988 21.6789V19.6789ZM8.97988 19.1789C8.97988 18.9028 9.20374 18.6789 9.47988 18.6789V16.6789C8.09917 16.6789 6.97988 17.7982 6.97988 19.1789H8.97988ZM9.47988 18.6789C9.75603 18.6789 9.97988 18.9028 9.97988 19.1789H11.9799C11.9799 17.7982 10.8606 16.6789 9.47988 16.6789V18.6789ZM17.9799 19.1789C17.9799 19.4551 17.756 19.6789 17.4799 19.6789V21.6789C18.8606 21.6789 19.9799 20.5596 19.9799 19.1789H17.9799ZM17.4799 19.6789C17.2037 19.6789 16.9799 19.4551 16.9799 19.1789H14.9799C14.9799 20.5596 16.0992 21.6789 17.4799 21.6789V19.6789ZM16.9799 19.1789C16.9799 18.9028 17.2037 18.6789 17.4799 18.6789V16.6789C16.0992 16.6789 14.9799 17.7982 14.9799 19.1789H16.9799ZM17.4799 18.6789C17.756 18.6789 17.9799 18.9028 17.9799 19.1789H19.9799C19.9799 17.7982 18.8606 16.6789 17.4799 16.6789V18.6789Z" fill="currentColor"/>
</svg>
