<svg width="81" height="80" viewBox="0 0 81 80" fill="currentColor" xmlns="http://www.w3.org/2000/svg">
    <g clip-path="url(#clip0_70_412)">
        <path d="M78.6891 54.1236H76.3128V44.8408C76.3128 42.1674 74.2237 40 71.6464 40C69.0691 40 66.98 42.1672 66.98 44.8408V68.1592C66.98 70.8326 69.0691 73 71.6464 73C74.2237 73 76.3128 70.8328 76.3128 68.1592V58.8764H78.6891C79.9543 58.8764 80.98 57.8124 80.98 56.4999C80.98 55.1874 79.9543 54.1236 78.6891 54.1236Z" fill="currentColor"/>
        <path d="M39.811 31.3208C40.2719 31.7741 40.876 32 41.4802 32C42.0843 32 42.6884 31.7741 43.1494 31.3208L56.876 17.8209C58.9464 15.785 59.98 13.1116 59.98 10.4367C59.98 7.7633 58.9464 5.08838 56.876 3.05395C52.7352 -1.01798 45.9985 -1.01798 41.8578 3.05395L41.4802 3.42526L41.1026 3.05395C36.9618 -1.01798 30.2252 -1.01798 26.0844 3.05395C21.9452 7.12435 21.9452 13.749 26.0844 17.8209L39.811 31.3208Z" fill="currentColor"/>
        <path d="M10.3136 40C7.73631 40 5.64716 42.1672 5.64716 44.8408V54.1235H3.27088C2.00569 54.1235 0.97998 55.1875 0.97998 56.5C0.97998 57.8125 2.00569 58.8765 3.27088 58.8765H5.64716V68.1592C5.64716 70.8326 7.73631 73 10.3136 73C12.8907 73 14.98 70.8328 14.98 68.1592V44.8408C14.98 42.1674 12.8907 40 10.3136 40Z" fill="currentColor"/>
        <path d="M57.2034 32C54.5654 32 52.427 34.1523 52.427 36.8075V53.6399H29.5328V36.8075C29.5328 34.1523 27.3944 32 24.7564 32C22.1185 32 19.98 34.1523 19.98 36.8075V75.1925C19.98 77.8477 22.1184 80 24.7564 80C27.3943 80 29.5328 77.8477 29.5328 75.1925V58.3603H52.4271V75.1925C52.4271 77.8477 54.5655 80 57.2036 80C59.8416 80 61.98 77.8477 61.98 75.1925V36.8075C61.9798 34.1525 59.8414 32 57.2034 32Z" fill="currentColor"/>
    </g>
    <defs>
        <clipPath id="clip0_70_412">
            <rect width="80" height="80" fill="currentColor" transform="translate(0.97998)"/>
        </clipPath>
    </defs>
</svg>
