<svg width="62" height="81" viewBox="0 0 62 81" fill="currentColor" xmlns="http://www.w3.org/2000/svg">
    <path d="M56.2131 66.9078L51.7322 53.4739C49.8656 47.8655 45.8648 43.3848 40.6978 40.8314C45.8808 38.2511 49.8897 33.4951 51.7322 27.9594L56.2131 14.5228C59.228 13.7306 61.4688 11.3194 61.4688 8.0592C61.4688 4.18202 58.3147 0.715454 54.4375 0.715454H7.5625C3.68531 0.715454 0.53125 3.86952 0.53125 7.7467C0.53125 11.0069 2.77203 13.7306 5.78688 14.5228L10.2678 27.9594C12.1183 33.5126 16.1306 38.2465 21.3125 40.8251C16.1409 43.3764 12.1395 47.8564 10.2678 53.4717L5.78688 66.9083C2.77203 67.7003 0.53125 70.424 0.53125 73.6842C0.53125 77.5614 3.68531 80.7155 7.5625 80.7155H54.4375C58.3147 80.7155 61.4688 77.5614 61.4688 73.6842C61.4688 70.4237 59.228 67.7001 56.2131 66.9078ZM13.942 24.153L10.8127 14.778H51.1873L48.0586 24.153H13.942ZM43.1181 66.653C41.2225 60.9737 36.9881 52.5905 31 52.5905C25.0236 52.5905 20.7791 60.9537 18.8819 66.653H10.8127L14.7173 54.9548C16.4511 49.7389 20.5589 45.8276 25.7345 44.1508L29.4802 47.3422C30.3644 48.0928 31.6389 48.0815 32.5059 47.3559L36.3145 44.1667C41.4678 45.8544 45.5567 49.7583 47.2825 54.9548L51.1873 66.653H43.1181Z" fill="currentColor"/>
</svg>
