<svg width="81" height="73" viewBox="0 0 81 73" fill="currentColor" xmlns="http://www.w3.org/2000/svg">
<path d="M70.3538 12.1743L79.7931 17.5358C80.5252 17.9516 80.98 18.7267 80.98 19.5584V31.6299C80.98 32.4616 80.5252 33.2364 79.7931 33.6523L69.1669 39.6881C68.4348 40.104 67.5253 40.104 66.7932 39.6881L56.1669 33.6524C55.4348 33.2366 54.98 32.4617 54.98 31.63V19.5585C54.98 18.7268 55.4348 17.9518 56.1669 17.5361L65.6062 12.1743V2.33536C65.6062 1.04562 66.669 0 67.98 0C69.2909 0 70.3538 1.04562 70.3538 2.33536V12.1743Z" fill="currentColor"/>
<path d="M61.1923 61.7963L54.1627 65.8376C53.4309 66.2582 52.5217 66.2584 51.7896 65.8376L41.1665 59.7304C40.4347 59.3096 39.98 58.5256 39.98 57.6839V45.4693C39.98 44.6277 40.4347 43.8435 41.1665 43.4227L51.7896 37.3155C52.5215 36.8949 53.4307 36.8947 54.1627 37.3155L64.7859 43.4227C65.5177 43.8435 65.9724 44.6277 65.9724 45.4693V54.3424H75.6069C76.9175 54.3424 77.98 55.4004 77.98 56.7054C77.98 58.0104 76.9175 59.0684 75.6069 59.0684H65.9385V70.637C65.9385 71.942 64.876 73 63.5654 73C62.2549 73 61.1923 71.942 61.1923 70.637V61.7963Z" fill="currentColor"/>
<path d="M2.13655 60.6648L9.65341 56.2816V45.5583C9.65341 44.7266 10.0965 43.9516 10.8096 43.5357L20.0044 38.1742V28.3354C20.0044 27.0456 21.0397 26 22.3167 26C23.5937 26 24.629 27.0456 24.629 28.3354V38.1742L33.8238 43.5357C34.5369 43.9516 34.98 44.7266 34.98 45.5583V57.6299C34.98 58.4616 34.5369 59.2366 33.8238 59.6523L23.4728 65.6882C22.7599 66.1039 21.8738 66.104 21.1605 65.6882L11.9657 60.3266L4.44886 64.7098C4.08475 64.9222 3.68719 65.0231 3.29487 65.0231C2.49574 65.0231 1.71849 64.6042 1.29025 63.8551C0.651592 62.738 1.0305 61.3097 2.13655 60.6648Z" fill="currentColor"/>
</svg>


