<svg width="62" height="81" viewBox="0 0 62 81" fill="currentColor" xmlns="http://www.w3.org/2000/svg">
    <path d="M61.4671 32.2295H0.532715C0.606621 29.9397 1.43975 26.9312 3.03115 24.3623L3.80147 23.1186C4.4374 23.3092 5.11084 23.4108 5.80615 23.4108H56.1936C56.889 23.4108 57.5624 23.3092 58.1983 23.1186L58.9687 24.3623C60.5336 26.8887 61.3891 29.8808 61.4671 32.2295Z" fill="currentColor"/>
    <path d="M23.2186 51.5826C23.3606 51.7939 23.3607 52.0397 23.2186 52.2514C22.7904 52.8873 21.4451 53.967 19.4326 54.9748V48.8592C21.4451 49.867 22.7904 50.9467 23.2186 51.5826Z" fill="currentColor"/>
    <path d="M41.9736 51.917C40.4705 53.7061 37.8611 56.1233 35.2908 56.1233C32.7174 56.1233 30.1096 53.7045 28.6064 51.9186C30.0971 50.1545 32.7283 47.7108 35.2908 47.7108C37.8611 47.7108 40.4705 50.1279 41.9736 51.917Z" fill="currentColor"/>
    <path d="M0.5 36.917V66.917H61.5V36.917H0.5ZM46.8688 53.2045C46.8188 53.2811 45.6188 55.0936 43.6984 56.8998C40.9391 59.4951 38.1094 60.8107 35.2906 60.8107C31.7112 60.8107 28.5261 58.6725 26.0672 56.092C24.2656 57.8529 21.2234 59.5717 17.8234 60.6936C16.2937 61.1901 14.7453 60.0561 14.7453 58.467V45.367C14.7453 43.7721 16.3045 42.6418 17.8234 43.1404C21.2234 44.2623 24.2656 45.9811 26.0672 47.742C28.5269 45.1609 31.7117 43.0232 35.2906 43.0232C38.1094 43.0232 40.9391 44.3389 43.6984 46.9342C45.6188 48.7404 46.8188 50.5529 46.8688 50.6295C47.3828 51.4107 47.3828 52.4232 46.8688 53.2045Z" fill="currentColor"/>
    <path d="M0.5 71.6045H61.5V78.3717C61.5 79.6654 60.45 80.7154 59.1563 80.7154H2.84375C1.55 80.7154 0.5 79.6654 0.5 78.3717V71.6045Z" fill="currentColor"/>
    <path d="M58.5374 3.0592V16.3795C58.5374 17.6733 57.489 18.7233 56.1936 18.7233H5.80615C4.51084 18.7233 3.4624 17.6733 3.4624 16.3795V3.0592C3.4624 1.76545 4.51084 0.715454 5.80615 0.715454H56.1936C57.489 0.715454 58.5374 1.76545 58.5374 3.0592Z" fill="currentColor"/>
</svg>
