<svg width="89" height="67" viewBox="0 0 89 67" fill="currentColor" xmlns="http://www.w3.org/2000/svg">
    <path d="M55.1774 47.2106C55.1774 47.2106 59.7388 54.047 69.2975 51.027L69.3038 51.0259C69.3038 51.0259 31.0394 82.3771 3.6422 56.4444C18.5384 62.6744 35.3473 48.9025 35.3473 48.9025L35.3436 48.9032C29.7631 50.6662 27.1001 46.6751 27.1001 46.6751C41.3329 43.831 46.3029 33.4787 46.3029 33.4787C42.7108 35.4958 40.3814 33.8996 35.3471 30.4498C33.0344 28.865 30.1508 26.8891 26.3117 24.6926C14.1163 17.7193 3.58956 28.3395 3.58956 28.3395C3.46131 23.8861 9.54068 19.5475 9.54068 19.5475C5.82251 20.731 3.06158 22.2384 0.989746 23.9941C3.63278 14.1559 9.35704 5.75522 25.1001 0.744263C25.1001 0.744263 14.6869 8.17574 14.9066 15.8039C14.9066 15.8039 32.9376 -2.38734 53.8269 9.55713C60.4028 13.3195 65.342 16.7041 69.3035 19.4186C77.9267 25.3276 81.9166 28.0617 88.0695 24.6068C88.0695 24.6068 79.5565 42.3389 55.1774 47.2106Z" fill="currentColor"/>
</svg>
