<svg width="74" height="81" viewBox="0 0 74 81" fill="currentColor" xmlns="http://www.w3.org/2000/svg">
    <path d="M67.861 41.6736C70.4612 39.7464 71.6515 36.5739 71.0699 33.5092C73.2993 31.3325 74.1415 28.048 73.1139 24.9786C72.0862 21.9092 69.4356 19.7942 66.3434 19.4006C65.2848 17.2606 63.2381 15.7878 60.9745 15.1625C55.4812 6.51717 46.4417 1.02452 36.5446 0.727485C19.0959 0.245454 5.13932 14.3125 5.13932 31.3394V66.9259C2.24869 69.8851 0.45166 73.9187 0.45166 78.3717C0.45166 79.6672 1.49994 80.7155 2.79541 80.7155H68.4218C69.7173 80.7155 70.7656 79.6672 70.7656 78.3717C70.7656 73.9186 68.9685 69.8851 66.0779 66.9259V42.6412C66.6949 42.3844 67.3026 42.088 67.861 41.6736ZM30.6028 28.8514C32.6215 27.0134 34.2993 24.7589 35.5399 22.303C37.7246 26.9914 41.4087 31.0719 46.1751 32.7103C46.4412 33.0562 46.6704 33.4273 46.9934 33.7311C46.5324 36.4367 47.5126 39.1492 49.5334 41.053C48.1684 47.6703 42.4193 52.4336 35.6085 52.4336C28.6115 52.4336 22.697 47.4233 21.5457 40.5223L20.3899 33.5917C24.0384 33.2345 27.5815 31.6026 30.6028 28.8514ZM5.37494 76.0278C6.30932 71.4454 9.93276 67.8465 14.5143 66.9095V76.0278H5.37494ZM52.0153 76.0278H19.2021V66.6526H23.8898C27.7671 66.6526 30.9212 63.3423 30.9212 59.465V56.4684C32.4312 56.8523 33.9848 57.1212 35.6089 57.1212C37.2328 57.1212 38.7864 56.8523 40.2965 56.4684V59.465C40.2965 63.3423 43.4506 66.6526 47.3279 66.6526H52.0156V76.0278H52.0153ZM56.7029 76.0278V66.9095C61.2848 67.8465 64.9079 71.4456 65.8423 76.0278H56.7029ZM65.0687 37.9061C63.7206 38.9017 61.8826 38.8422 60.6099 37.7528C59.7173 36.9951 58.4081 37.002 57.5337 37.7825C56.2748 38.8925 54.4439 38.9909 53.0771 38.0183C51.7084 37.0433 51.2026 35.2786 51.8434 33.7265C52.2896 32.6462 51.8731 31.4034 50.866 30.8106C49.4196 29.9615 48.7628 28.2472 49.2664 26.6448C49.7401 25.1365 51.1203 24.1386 52.679 24.1386C52.7729 24.1386 52.869 24.1431 52.9651 24.15C54.0981 24.2186 55.1853 23.4611 55.437 22.3189C55.7985 20.6801 57.2245 19.5242 58.9024 19.5083C60.3512 19.49 62.029 20.6206 62.4204 22.2548C62.6951 23.3901 63.741 24.15 64.9267 24.0378C66.5746 23.8639 68.1356 24.8733 68.669 26.4662C69.2024 28.0592 68.5751 29.785 67.1446 30.6619C66.1467 31.273 65.7531 32.525 66.2199 33.5961C66.8906 35.1344 66.4168 36.9081 65.0687 37.9061Z" fill="currentColor"/>
</svg>
