<svg width="70" height="81" viewBox="0 0 70 81" fill="currentColor" xmlns="http://www.w3.org/2000/svg">
    <path d="M42.2386 26.8231C40.1304 26.8231 38.1482 27.6442 36.6572 29.135C35.7421 30.0503 34.258 30.0503 33.3427 29.135C31.8038 27.5962 29.7827 26.8269 27.7613 26.8269C25.74 26.8269 23.7189 27.5962 22.18 29.135C20.6893 30.6259 19.8682 32.608 19.8682 34.7162C19.8682 36.8245 20.6893 38.8067 22.18 40.2975L35 53.1172L47.8199 40.2975C49.3107 38.8066 50.1318 36.8245 50.1318 34.7162C50.1318 32.608 49.3107 30.6258 47.8199 29.135C46.3291 27.6442 44.3469 26.8231 42.2386 26.8231Z" fill="currentColor"/>
    <path d="M68.0178 11.5947L35.741 0.835811C35.26 0.675498 34.7397 0.675498 34.2588 0.835811L1.98205 11.5947C1.02502 11.9138 0.379395 12.8094 0.379395 13.8182V33.5902C0.379395 54.9507 13.9946 73.8407 34.2588 80.5953C34.4992 80.6755 34.7497 80.7157 34.9999 80.7157C35.25 80.7157 35.5005 80.6757 35.741 80.5953C56.0053 73.8405 69.6203 54.9507 69.6203 33.5902V13.8182C69.6203 12.8094 68.9749 11.9138 68.0178 11.5947ZM51.1342 43.6121L36.6572 58.0891C36.1996 58.5468 35.5997 58.7757 35 58.7757C34.4003 58.7757 33.8003 58.5469 33.3428 58.0891L18.8658 43.6121C16.4896 41.236 15.181 38.0767 15.181 34.7163C15.181 31.3558 16.4896 28.1966 18.8658 25.8203C23.25 21.436 30.0927 20.971 34.9985 24.4239C37.1028 22.9369 39.6094 22.1355 42.2388 22.1355C45.5992 22.1355 48.7585 23.4441 51.1346 25.8203C53.5108 28.1964 54.8194 31.3557 54.8194 34.7161C54.8194 38.0766 53.5105 41.236 51.1342 43.6121Z" fill="currentColor"/>
</svg>
