<svg width="80" height="80" viewBox="0 0 80 80" fill="currentColor" xmlns="http://www.w3.org/2000/svg">
    <path d="M47.1094 0.374878V13.8793C47.1094 16.1955 48.6383 18.3172 51.1927 19.5555C54.4061 21.1143 56.4844 24.4263 56.4844 27.9968C56.4844 36.7207 45.562 40.6803 39.9453 34.0438C35.5205 40.1775 22.9894 37.211 23.6947 27.3032C23.9373 23.9569 26.1483 20.8716 29.3252 19.4433C31.5498 18.4432 33.0467 15.8086 33.0467 12.8882V0.375034C14.4256 3.71035 0.078125 20.1482 0.078125 39.7155C0.078125 59.2828 14.4256 75.7207 33.0469 79.056V66.5427C33.0469 63.6222 31.55 60.9877 29.3253 59.9875C26.1484 58.5593 23.9375 55.4739 23.6948 52.1277C23.0244 42.7078 34.785 38.9803 40.2109 45.3871C44.8516 38.9486 56.4844 42.3324 56.4844 51.4343C56.4844 55.0049 54.4061 58.3168 51.1927 59.8753C48.6383 61.1136 47.1094 63.2353 47.1094 65.5516V79.056C65.7306 75.7207 79.9219 59.2828 79.9219 39.7155C79.9219 20.1482 65.7306 3.71035 47.1094 0.374878Z" fill="currentColor"/>
</svg>
