<svg width="111" height="70" viewBox="0 0 111 70" fill="none" xmlns="http://www.w3.org/2000/svg">
    <g clip-path="url(#clip0_102_613)">
        <mask id="mask0_102_613" style="mask-type:luminance" maskUnits="userSpaceOnUse" x="0" y="0" width="111" height="70">
            <path d="M110.549 0.656189H0.451172V69.0595H110.549V0.656189Z" fill="white"/>
        </mask>
        <g mask="url(#mask0_102_613)">
            <path d="M18.994 1.16272V31.8059H13.9843V5.5724H5.46088V31.8059H0.451172V1.16272H18.994Z" fill="#1928DC"/>
            <path d="M28.0396 30.5945C26.5388 29.1894 25.4473 27.3895 24.8853 25.3928C24.0627 22.5905 23.6715 19.6752 23.7256 16.7508C23.6726 13.7447 24.0635 10.7478 24.8853 7.86044C25.4372 5.79803 26.5273 3.92679 28.0396 2.44587C29.3618 1.28968 31.0463 0.654114 32.7884 0.654114C34.5304 0.654114 36.2149 1.28968 37.5371 2.44587C39.0575 3.91351 40.1459 5.78462 40.6799 7.84861C41.5028 10.7398 41.8937 13.7408 41.8395 16.7508C41.8934 19.6791 41.5022 22.5983 40.6799 25.4046C40.1322 27.4021 39.0477 29.2039 37.5488 30.6063C36.2003 31.7147 34.5204 32.3191 32.7884 32.3191C31.0562 32.3191 29.3764 31.7147 28.028 30.6063L28.0396 30.5945ZM29.2688 22.8391C29.4648 24.1754 29.9479 25.4511 30.6836 26.575C30.9153 26.9288 31.2267 27.2208 31.5919 27.4264C31.9572 27.6321 32.3655 27.7456 32.7826 27.7572C34.0234 27.7572 34.9975 26.8351 35.7165 24.9908C36.5485 22.3181 36.9097 19.5164 36.7834 16.7152C36.8153 14.5843 36.6523 12.455 36.2963 10.3549C36.1093 8.9741 35.6305 7.65111 34.8931 6.47723C34.6862 6.09258 34.3816 5.77169 34.0114 5.54818C33.6411 5.32467 33.2187 5.20674 32.7884 5.20674C32.358 5.20674 31.9356 5.32467 31.5653 5.54818C31.195 5.77169 30.8905 6.09258 30.6836 6.47723C29.9551 7.65237 29.4734 8.96867 29.2688 10.3431C28.9086 12.4388 28.7418 14.5642 28.7702 16.6916C28.7384 18.7525 28.9055 20.8115 29.2688 22.8391Z" fill="#1928DC"/>
            <path d="M58.3861 1.16272V12.914H55.7305C54.768 12.9678 53.8065 12.7896 52.9242 12.3938C52.2278 12.017 51.6944 11.3889 51.4282 10.6323C51.0739 9.57973 50.9128 8.46964 50.9527 7.35756V1.16272H45.943V7.33392C45.7974 9.99594 46.5776 12.625 48.1464 14.7582C48.9702 15.691 49.9913 16.4206 51.1324 16.8917C52.2736 17.3627 53.5049 17.563 54.7332 17.4774H58.3861V31.8059H63.3958V1.16272H58.3861Z" fill="#1928DC"/>
            <path d="M85.3682 5.5724H79.4888V31.8059H74.4791V5.5724H68.5996V1.16272H85.3682V5.5724Z" fill="#1928DC"/>
            <path d="M95.4606 1.15756H99.4729C101.126 1.0665 102.769 1.47796 104.193 2.33978C105.435 3.18622 106.401 4.39271 106.965 5.80369C107.654 7.55418 108.088 9.39841 108.252 11.2774L110.571 31.7416H105.562L103.938 17.4486H95.4372V31.8007H90.4277V1.15756H95.4606ZM95.4606 13.098H103.463L103.254 11.3364C103.161 10.2046 102.931 9.08875 102.569 8.01444C102.316 7.29157 101.818 6.68404 101.166 6.30021C100.325 5.88911 99.3953 5.70201 98.464 5.75639H95.4606V13.098Z" fill="#1928DC"/>
            <path d="M5.97113 37.9069C7.64143 37.8618 9.29002 38.3005 10.7257 39.1719C12.1333 40.0853 13.2307 41.4186 13.8684 42.9905C14.683 44.9934 15.078 47.1477 15.028 49.3154C15.0796 51.3657 14.7205 53.4051 13.9728 55.3092C13.4188 56.7718 12.5232 58.0744 11.3636 59.1042C10.5794 59.8573 9.56256 60.3087 8.48757 60.3809C7.93078 60.4207 7.37219 60.3355 6.85123 60.1312C6.33027 59.9269 5.85961 59.6086 5.47248 59.1987V68.5501H0.451172V37.9069H5.97113ZM5.75079 53.7723C5.87432 54.32 6.12935 54.8277 6.49296 55.2501C6.61143 55.3987 6.75957 55.5198 6.92754 55.6054C7.09551 55.691 7.27943 55.7392 7.46708 55.7466C7.90726 55.7217 8.32175 55.5274 8.62674 55.2028C9.09509 54.7066 9.43053 54.0959 9.60082 53.4295C9.88256 52.4108 10.0116 51.3545 9.98354 50.2965C9.98354 47.4356 9.64721 45.414 8.95144 44.2318C8.66659 43.6855 8.23775 43.2311 7.71323 42.9199C7.18872 42.6087 6.58937 42.453 5.98273 42.4703H5.47248V51.4079C5.45702 52.2054 5.55069 53.0012 5.75079 53.7723Z" fill="#1928DC"/>
            <path d="M20.5592 67.3238C19.0519 65.9194 17.9594 64.1138 17.405 62.1102C16.5816 59.3081 16.1904 56.3927 16.2453 53.4682C16.1922 50.4661 16.5831 47.473 17.405 44.5897C17.9522 42.5287 19.0431 40.6601 20.5592 39.1869C21.8815 38.0307 23.566 37.3952 25.308 37.3952C27.05 37.3952 28.7345 38.0307 30.0568 39.1869C31.5705 40.6552 32.6579 42.5205 33.1994 44.5779C34.0215 47.4692 34.4124 50.4702 34.3591 53.48C34.4335 56.4053 34.0618 59.3248 33.2575 62.1338C32.7127 64.1327 31.6278 65.9352 30.1264 67.3356C28.7816 68.4523 27.1003 69.062 25.366 69.062C23.6316 69.062 21.9504 68.4523 20.6056 67.3356L20.5592 67.3238ZM21.8 59.5803C22.0034 60.8834 22.4822 62.1257 23.2032 63.2215C23.4326 63.5721 23.7404 63.8621 24.1013 64.0677C24.4622 64.2732 24.8659 64.3884 25.279 64.4037C26.516 64.4037 27.4901 63.4816 28.2014 61.6373C29.0448 58.9671 29.4101 56.1639 29.2798 53.3618C29.3114 51.2308 29.1483 49.1016 28.7927 47.0014C28.6003 45.6294 28.1219 44.3152 27.3895 43.1474C27.1827 42.7628 26.8781 42.4419 26.5079 42.2183C26.1376 41.9948 25.7151 41.8769 25.2848 41.8769C24.8545 41.8769 24.4321 41.9948 24.0618 42.2183C23.6915 42.4419 23.3869 42.7628 23.18 43.1474C22.4501 44.3573 21.9798 45.7111 21.8 47.1196C21.4409 49.2155 21.274 51.3408 21.3014 53.4682C21.2723 55.5172 21.4392 57.5643 21.8 59.5803Z" fill="#1928DC"/>
            <path d="M37.7815 44.8265C39.0042 42.5175 40.929 40.6755 43.2666 39.5774C46.0034 38.366 48.9708 37.7925 51.9525 37.8987V42.4975C48.3808 42.4975 45.6556 43.4078 43.7653 45.2521C41.8751 47.0964 40.9242 49.8273 40.9242 53.5276C40.9242 57.228 41.8635 59.6752 43.7538 61.4012C45.6439 63.1273 48.3923 64.0021 51.9525 64.0021V68.5419C46.8268 68.5419 42.8724 67.2808 40.0892 64.7587C37.306 62.2366 35.9145 58.4733 35.9145 53.4685C35.8043 50.4727 36.447 47.498 37.7815 44.8265Z" fill="#1928DC"/>
            <path d="M54.6423 44.8345C55.8659 42.522 57.7957 40.6792 60.1391 39.5854C62.8574 38.3631 65.8086 37.7735 68.7785 37.8593V42.4582C65.2184 42.4582 62.4932 43.3685 60.5913 45.2128C58.6895 47.057 57.7501 49.8352 57.7501 53.4765C57.7501 57.1177 58.6895 59.624 60.5797 61.3501C62.47 63.0762 65.2184 63.951 68.7669 63.951V68.5498C63.6413 68.5498 59.6868 67.2887 56.9036 64.7667C54.1204 62.2447 52.7289 58.4812 52.7289 53.4765C52.633 50.4766 53.2917 47.5016 54.6423 44.8345Z" fill="#1928DC"/>
            <path d="M76.1415 37.9055V48.8411L84.6533 41.5231L89.663 37.2198V68.5487H84.6533V47.6943L76.1415 55.0123V68.5487H71.1201V37.9055H76.1415Z" fill="#1928DC"/>
            <path d="M97.0289 37.8993V48.8349L105.541 41.517L110.527 37.2373V68.5425H105.517V47.6881L97.0054 55.0061V68.5425H92.0186V37.8993H97.0289Z" fill="#1928DC"/>
        </g>
    </g>
    <defs>
        <clipPath id="clip0_102_613">
            <rect width="111" height="69" fill="white" transform="translate(0 0.357849)"/>
        </clipPath>
    </defs>
</svg>
