<svg width="26" height="27" viewBox="0 0 26 27" fill="currentColor" xmlns="http://www.w3.org/2000/svg">
<g clip-path="url(#clip0_90_1169)">
<path d="M24.7404 3.77041H16.0521C16.1534 3.49714 16.2063 3.20846 16.2092 2.91728C16.2092 1.50388 15.0632 0.35791 13.6498 0.35791C12.2364 0.35791 11.0904 1.50388 11.0904 2.91728C11.0933 3.20846 11.1462 3.49714 11.2475 3.77041H2.55918C2.08804 3.77041 1.70605 4.1524 1.70605 4.62353V8.03603C1.70605 8.50717 2.08804 8.88916 2.55918 8.88916H3.4977L5.12689 25.1839C5.17104 25.6213 5.54053 25.9537 5.98001 25.9517H21.3279C21.7678 25.9537 22.1369 25.6213 22.1811 25.1839L23.8061 8.88916H24.7404C25.2116 8.88916 25.5936 8.50717 25.5936 8.03603V4.62353C25.5936 4.1524 25.2116 3.77041 24.7404 3.77041ZM12.7967 2.91728C12.7967 2.44615 13.1787 2.06416 13.6498 2.06416C14.1209 2.06416 14.5029 2.44615 14.5029 2.91728C14.5029 3.38842 14.1209 3.77041 13.6498 3.77041C13.1787 3.77041 12.7967 3.38842 12.7967 2.91728ZM20.5602 24.2454H6.74357L5.20812 8.88916H22.0957L20.5602 24.2454ZM23.8873 7.18291H3.4123V5.47666H23.8873V7.18291Z" fill="currentColor"/>
<path d="M13.65 20.8735C14.1211 20.8735 14.5031 20.4915 14.5031 20.0204V13.1954C14.5031 12.7243 14.1211 12.3423 13.65 12.3423C13.1789 12.3423 12.7969 12.7243 12.7969 13.1954V20.0204C12.7969 20.4915 13.1789 20.8735 13.65 20.8735Z" fill="currentColor"/>
<path d="M16.9564 20.8668C16.9913 20.871 17.0267 20.8731 17.0621 20.8735C17.4915 20.8731 17.8536 20.5504 17.9068 20.1208L18.7591 13.2469C18.8045 12.9386 18.6809 12.6294 18.4358 12.4393C18.1907 12.2493 17.8623 12.2077 17.5785 12.3311C17.2947 12.4548 17.0991 12.7238 17.0679 13.0338L16.2156 19.9077C16.1574 20.3788 16.489 20.808 16.9564 20.8668Z" fill="currentColor"/>
<path d="M10.2359 20.8735C10.2718 20.8735 10.3072 20.871 10.3426 20.8669C10.8104 20.808 11.1423 20.3808 11.084 19.9124L10.2301 13.0713C10.1617 12.612 9.73973 12.2914 9.27942 12.349C8.81911 12.4066 8.4893 12.8212 8.53558 13.2834L9.38949 20.1245C9.44286 20.552 9.8056 20.8731 10.2359 20.8735Z" fill="currentColor"/>
</g>
<defs>
<clipPath id="clip0_90_1169">
<rect width="26" height="26" fill="currentColor" transform="translate(0 0.35791)"/>
</clipPath>
</defs>
</svg>
