<svg width="145" height="45" viewBox="0 0 145 45" fill="none" xmlns="http://www.w3.org/2000/svg">
<g clip-path="url(#clip0_102_599)">
<path fill-rule="evenodd" clip-rule="evenodd" d="M23.2548 30.6017H16.9917C7.22242 30.6017 14.3199 9.76754 22.5447 9.76754H32.44C34.0261 9.76754 36.8234 10.0605 38.2015 6.12046L40.3308 0H26.7617C19.4134 0 13.6935 2.59878 9.5603 6.95899C2.42066 14.4207 -0.000419497 26.0745 1.7111 31.6494C3.33942 36.8059 7.765 40.201 14.6955 40.2848L20.0814 40.327H26.72L28.3484 35.4225C29.5589 31.943 26.8449 30.6017 23.2548 30.6017ZM99.491 21.9663L101.537 15.3008H79.7016C76.0694 15.3008 74.4411 16.307 73.8147 18.403L71.7686 25.0684H93.6047C97.237 25.0684 98.8653 24.0623 99.491 21.9663ZM68.5126 33.7038L66.4665 40.3686H88.302C91.8926 40.3686 93.5625 39.3631 94.1889 37.2671L96.235 30.6017H74.3989C70.8089 30.6017 69.1805 31.6078 68.5126 33.7038ZM104.585 6.70701L106.631 0.0421932H84.7952C81.1629 0.0421932 79.5346 1.04771 78.9083 3.14372L76.8622 9.80913H98.6983C102.289 9.80913 103.917 8.80302 104.585 6.70701ZM71.6016 8.04889C70.6835 1.84464 67.3852 0.0421932 59.369 0.0421932H44.7564L36.2392 25.0684H41.6251C44.8396 25.0684 46.4679 25.11 48.18 20.499L51.7284 9.76754H57.1559C61.7907 9.76754 60.7466 15.5944 58.4087 21.2531C56.321 26.2421 52.6888 30.6433 48.3048 30.6433H39.245C35.6128 30.6433 33.9429 31.6494 33.2749 33.7454L31.0202 40.4108H37.6583L44.1716 40.3686C49.9331 40.327 54.6511 39.9081 60.1624 34.9191C66.0071 29.5956 72.7712 15.9296 71.6016 8.04889ZM145 0H132.349L120.45 12.7015C119.072 14.1688 117.653 15.636 116.275 17.3547H116.15L122.078 0H111.766L97.8633 40.3686H108.175L112.601 27.6672L117.193 23.7687L120.826 35.2549C121.953 38.8182 123.122 40.3686 125.627 40.3686H133.518L125.419 17.8158L145 0Z" fill="#00B33C"/>
</g>
<defs>
<clipPath id="clip0_102_599">
<rect width="145" height="44" fill="white" transform="translate(0 0.357849)"/>
</clipPath>
</defs>
</svg>
