<svg width="24" height="25" viewBox="0 0 24 25" fill="none" xmlns="http://www.w3.org/2000/svg">
    <rect y="0.396973" width="24" height="24" rx="12" fill="#0077FF"/>
    <path d="M12.6668 17.897C7.54196 17.897 4.61988 14.3373 4.5 8.40458H7.07742C7.15984 12.7553 9.04795 14.5959 10.5465 14.9762V8.40458H12.9665V12.1544C14.4426 11.9947 16.001 10.2833 16.5255 8.39697H18.9381C18.7413 9.37342 18.3484 10.2982 17.7837 11.1135C17.2191 11.9288 16.4949 12.6172 15.6563 13.1356C16.5921 13.6084 17.4185 14.2772 18.081 15.0979C18.7436 15.9187 19.2272 16.8726 19.5 17.897H16.8402C16.2707 16.0943 14.8472 14.6948 12.9665 14.5047V17.897H12.6743H12.6668Z" fill="white"/>
</svg>
