<svg width="81" height="80" viewBox="0 0 81 80" fill="currentColor" xmlns="http://www.w3.org/2000/svg">
    <path d="M48.4799 21C49.8584 21 50.98 19.8785 50.98 18.5C50.98 17.1215 49.8585 16 48.4799 16C47.1013 16 45.98 17.1215 45.98 18.5C45.98 19.8785 47.1014 21 48.4799 21Z" fill="currentColor"/>
    <path d="M48.9799 37C59.4565 37 67.98 28.7009 67.98 18.5C67.98 8.2991 59.4565 0 48.9799 0C38.5033 0 29.98 8.2991 29.98 18.5C29.98 28.7009 38.5033 37 48.9799 37ZM48.9799 11.5625C52.9086 11.5625 56.1051 14.6747 56.1051 18.5C56.1051 22.3253 52.9086 25.4375 48.9799 25.4375C45.0512 25.4375 41.8549 22.3253 41.8549 18.5C41.8549 14.6747 45.0512 11.5625 48.9799 11.5625Z" fill="currentColor"/>
    <path d="M79.9819 40.992C79.3564 40.5563 78.5566 40.4505 77.838 40.7083L68.1887 44.1709C65.0339 41.9647 61.0942 40.7628 56.945 40.7628C51.2258 40.7628 45.8958 43.1053 42.6117 46.9684C40.0747 45.3764 37.052 44.81 34.0017 45.4107C31.9355 45.8176 30.0408 46.734 28.5129 48.0084C28.6704 47.8725 28.4013 46.7668 28.3938 46.542C28.3532 45.3261 28.5259 44.1105 28.8284 42.9339C29.4733 40.4258 30.7256 38.0629 32.086 35.8708C27.8738 31.8185 25.1854 26.2158 24.9645 20C23.5786 20.9567 22.2401 21.9858 20.9513 23.0866C17.9625 25.6393 15.2673 28.5448 12.9305 31.6967C11.3463 33.8336 9.90197 36.0682 8.6119 38.3921C2.60827 49.2052 1.0525 59.4536 0.98076 62.1912C0.976852 62.3419 0.987637 62.4926 1.01311 62.6412C1.86024 67.5917 5.53413 72.0817 11.3577 75.2845C16.8871 78.3254 23.9931 80 31.3665 80C38.5322 80 45.3578 78.4439 50.8013 75.593L54.9259 79.2417C55.3547 79.7067 55.9689 79.9999 56.6539 79.9999H78.6355C79.9303 79.9999 80.98 78.958 80.98 77.673V42.8967C80.9795 42.1383 80.6072 41.4276 79.9819 40.992Z" fill="currentColor"/>
</svg>
