<svg width="81" height="64" viewBox="0 0 81 64" fill="currentColor" xmlns="http://www.w3.org/2000/svg">
    <path d="M10.3646 2.34783C10.3646 1.0512 9.33137 0 8.0569 0H3.28767C2.01321 0 0.97998 1.0512 0.97998 2.34783V33.6522C0.97998 34.9488 2.01321 36 3.28767 36H8.0569C9.33137 36 10.3646 34.9488 10.3646 33.6522V23.4783H14.98V12.5217H10.3646V2.34783Z" fill="currentColor"/>
    <path d="M78.6723 0H73.9031C72.6286 0 71.5954 1.0512 71.5954 2.34783V12.5217H66.98V23.4783H71.5954V33.6522C71.5954 34.9488 72.6286 36 73.9031 36H78.6723C79.9468 36 80.98 34.9488 80.98 33.6522V2.34783C80.98 1.0512 79.9468 0 78.6723 0Z" fill="currentColor"/>
    <path d="M56.73 6C53.8304 6 51.48 8.31687 51.48 11.175C51.48 8.31687 49.1295 6 46.23 6C43.3304 6 40.98 8.31687 40.98 11.175C40.98 8.31687 38.6295 6 35.73 6C32.8304 6 30.48 8.31687 30.48 11.175C30.48 8.31687 28.1295 6 25.23 6C22.3304 6 19.98 8.31687 19.98 11.175V20.8378C21.3952 20.1732 22.9774 19.8 24.6466 19.8H40.2022C40.4652 19.8 40.7244 19.8156 40.98 19.8435C44.475 20.2263 47.2022 23.1545 47.2022 26.7V27.4667C47.2022 27.9602 47.1725 28.4468 47.1148 28.9253C49.5928 28.5106 51.48 26.3857 51.48 23.825C51.48 26.6831 53.8304 29 56.73 29C59.6295 29 61.98 26.6831 61.98 23.825V11.175C61.98 8.31687 59.6295 6 56.73 6Z" fill="currentColor"/>
    <path d="M51.3728 32.8463C49.8335 33.804 48.016 34.36 46.0693 34.36C46.0422 34.36 46.0155 34.3588 45.9885 34.3586C44.2202 38.0453 40.4311 40.6 36.0514 40.6H32.9086V41.3139C32.9086 42.5739 31.9332 43.6581 30.6653 43.7173C29.3117 43.7807 28.1943 42.7099 28.1943 41.38V38.26C28.1943 36.9677 29.2496 35.92 30.5514 35.92H34.48C38.8193 35.92 42.3371 32.4278 42.3371 28.12V27.34C42.3371 26.0477 41.2818 25 39.98 25H24.2657C20.7943 25 17.98 27.7938 17.98 31.24V41.38C17.98 47.5691 22.8464 52.6513 28.98 53.0543V61.66C28.98 62.9523 30.0354 64 31.3371 64H50.1943C51.496 64 52.5514 62.9523 52.5514 61.66V52.8449C57.9243 51.7576 61.98 47.0302 61.98 41.38V32.8463C60.4406 33.804 58.6231 34.36 56.6764 34.36C54.7297 34.36 52.9122 33.804 51.3728 32.8463Z" fill="currentColor"/>
</svg>
