<svg width="80" height="81" viewBox="0 0 80 81" fill="currentColor" xmlns="http://www.w3.org/2000/svg">
    <path d="M49.375 38.0592H40C39.052 38.0592 38.1975 37.4881 37.8347 36.6123C37.472 35.7365 37.6725 34.7284 38.3428 34.0581L43.7167 28.6842H40C38.7056 28.6842 37.6562 27.6348 37.6562 26.3405C37.6562 25.0461 38.7056 23.9967 40 23.9967H49.375C50.323 23.9967 51.1775 24.5678 51.5403 25.4436C51.903 26.3194 51.7025 27.3275 51.0322 27.9978L45.6583 33.3717H49.375C50.6694 33.3717 51.7188 34.4211 51.7188 35.7155C51.7188 37.0098 50.6694 38.0592 49.375 38.0592Z" fill="currentColor"/>
    <path d="M68.125 19.3092H58.75C57.802 19.3092 56.9475 18.7381 56.5847 17.8623C56.222 16.9865 56.4225 15.9784 57.0928 15.3081L62.4667 9.9342H58.75C57.4556 9.9342 56.4062 8.88483 56.4062 7.59045C56.4062 6.29608 57.4556 5.2467 58.75 5.2467H68.125C69.073 5.2467 69.9275 5.8178 70.2903 6.69358C70.653 7.56936 70.4525 8.57749 69.7822 9.2478L64.4083 14.6217H68.125C69.4194 14.6217 70.4688 15.6711 70.4688 16.9655C70.4688 18.2598 69.4194 19.3092 68.125 19.3092Z" fill="currentColor"/>
    <path d="M40 80.7155C17.9439 80.7155 0 62.7358 0 40.6356C0 30.4308 3.83875 20.7259 10.8094 13.3089C18.0112 5.64563 27.9753 1.17391 38.8662 0.717503C39.8127 0.678128 40.6858 1.20907 41.0866 2.06453C41.5405 3.03297 41.352 4.30844 40.1017 5.11828C37.3655 6.89125 28.4375 13.6784 28.4375 26.5731C28.4375 40.7028 39.9328 52.1981 54.0625 52.1981C66.5537 52.1981 73.2581 44.0752 75.5608 40.5828C76.6884 38.8717 78.1902 39.333 78.6511 39.5491C79.5066 39.9502 80.0375 40.8255 79.9978 41.7692C79.5419 52.6497 75.0612 62.6227 67.3816 69.8509C59.938 76.857 50.2136 80.7155 40 80.7155Z" fill="currentColor"/>
</svg>
