<svg width="81" height="80" viewBox="0 0 81 80" fill="currentColor" xmlns="http://www.w3.org/2000/svg">
<path d="M16.1073 19.725C16.5412 20.5693 17.4348 21.0706 18.3719 20.9918C19.3104 20.9152 20.1117 20.2776 20.4056 19.3739C23.2559 10.6135 31.2957 4.72749 40.4118 4.72749C49.5279 4.72749 57.5676 10.6135 60.4178 19.3739C60.7415 20.369 61.6566 21 62.6396 21C62.8818 21 63.128 20.9617 63.3707 20.8812C64.598 20.4734 65.2658 19.1377 64.8624 17.8973C63.1834 12.7373 59.9962 8.29722 55.645 5.05747C51.2014 1.74886 45.9338 0 40.4118 0C34.8896 0 29.622 1.74886 25.1784 5.05763C22.2169 7.26269 19.7948 10.0235 18.0202 13.1891L17.3958 11.974C16.8005 10.8152 15.3886 10.3638 14.2417 10.9654C13.0951 11.5669 12.6483 12.994 13.2436 14.1525L16.1073 19.725Z" fill="currentColor"/>
<path d="M26.98 26C26.98 33.7198 33.2603 40 40.9799 40C48.6995 40 54.98 33.7198 54.98 26C54.98 18.2804 48.6995 12 40.9799 12C33.2603 12 26.98 18.2804 26.98 26ZM42.6299 27.6498C42.1743 28.1054 41.5771 28.3333 40.9799 28.3333C40.3827 28.3333 39.7856 28.1054 39.3301 27.6498L36.0426 24.3623C35.1314 23.4512 35.1314 21.9738 36.0424 21.0625C36.9537 20.1514 38.4311 20.1514 39.3422 21.0625L42.6299 24.35C43.5411 25.2614 43.5411 26.7386 42.6299 27.6498Z" fill="currentColor"/>
<path d="M71.3389 27.8482L59.0455 24C59.0782 24.4563 59.0954 24.917 59.0954 25.3818C59.0954 35.7968 50.7445 44.2701 40.4798 44.2701C30.2152 44.2701 21.8642 35.7968 21.8642 25.3818C21.8642 24.9172 21.8816 24.4563 21.9144 24L9.62097 27.8482C8.56346 28.1792 7.88197 29.2202 7.9915 30.3376L12.6455 77.8724C12.7637 79.08 13.7651 80 14.9611 80H65.9984C67.1944 80 68.1956 79.08 68.314 77.8724L72.9685 30.3376C73.0779 29.2202 72.3964 28.179 71.3389 27.8482ZM42.4839 69.7681C42.4839 71.072 41.442 72.1291 40.1569 72.1291C38.8718 72.1291 37.83 71.072 37.83 69.7681V55.2898C37.83 53.9859 38.8718 52.9288 40.1569 52.9288C41.442 52.9288 42.4839 53.9859 42.4839 55.2898V69.7681Z" fill="currentColor"/>
</svg>
