<svg width="81" height="80" viewBox="0 0 81 80" fill="currentColor" xmlns="http://www.w3.org/2000/svg">
<path d="M60.7202 80H37.2968C34.3604 80 31.98 77.695 31.98 74.8518C31.98 72.4989 33.6272 70.4455 35.9815 69.8635L58.6767 64.2527C63.8998 62.9614 68.98 66.7822 68.98 72.0021C68.98 76.4192 65.2819 80 60.7202 80Z" fill="currentColor"/>
<path d="M31.98 66.3103L23.9367 64.2527C18.8892 62.9614 13.98 66.7823 13.98 72.0021C13.98 76.4191 17.5537 80 21.9621 80H28.3907C27.4557 78.5058 26.913 76.7416 26.913 74.8516C26.913 71.2253 28.9108 67.9806 31.98 66.3103Z" fill="currentColor"/>
<path d="M29.5744 35.5905L23.9973 24.027C23.4837 22.9623 23.8262 21.6775 24.7995 21.0182L38.98 11.4121V0L18.5389 13.8473C15.6842 15.7808 13.98 19.0097 13.98 22.4846C13.98 24.0551 14.3398 25.6311 15.0204 27.0423L23.1994 44C24.5365 40.6436 26.7595 37.7411 29.5744 35.5905Z" fill="currentColor"/>
<path d="M67.98 22.4846C67.98 19.0097 66.2758 15.7808 63.4212 13.8472L42.98 0V11.4121L57.1606 21.0182C58.1339 21.6775 58.4764 22.9623 57.9628 24.027L52.3858 35.5905C55.2006 37.7411 57.4234 40.6436 58.7606 44L66.9395 27.0423C67.6201 25.6311 67.98 24.0551 67.98 22.4846Z" fill="currentColor"/>
<path d="M55.98 60.1415V51.1594C55.98 46.1794 53.5762 41.7549 49.8769 39C47.5066 41.1193 44.3908 42.41 40.98 42.41C37.5691 42.41 34.4534 41.1193 32.0831 39C28.3838 41.7549 25.98 46.1794 25.98 51.1594V60.1415L40.98 64L55.98 60.1415Z" fill="currentColor"/>
<path d="M40.48 37C35.7931 37 31.98 33.1869 31.98 28.5C31.98 23.8131 35.7931 20 40.48 20C45.1669 20 48.98 23.8131 48.98 28.5C48.98 33.1869 45.1669 37 40.48 37Z" fill="currentColor"/>
</svg>
